<svg xmlns="http://www.w3.org/2000/svg" xmlns:xlink="http://www.w3.org/1999/xlink" width="200" zoomAndPan="magnify" viewBox="0 0 150 149.999998" height="200" preserveAspectRatio="xMidYMid meet" version="1.0"><defs><g/><clipPath id="7505823e84"><path d="M 106 12 L 115.960938 12 L 115.960938 22 L 106 22 Z M 106 12 " clip-rule="nonzero"/></clipPath><clipPath id="bbcb71e35a"><path d="M 0.0390625 0.0390625 L 45 0.0390625 L 45 31.960938 L 0.0390625 31.960938 Z M 0.0390625 0.0390625 " clip-rule="nonzero"/></clipPath><clipPath id="ef420c83b0"><path d="M 1.355469 18.914062 L 10.917969 18.914062 L 10.917969 30.5625 L 1.355469 30.5625 Z M 1.355469 18.914062 " clip-rule="nonzero"/></clipPath><clipPath id="a10a2e91e9"><path d="M 11.980469 13.085938 L 21.542969 13.085938 L 21.542969 30.5625 L 11.980469 30.5625 Z M 11.980469 13.085938 " clip-rule="nonzero"/></clipPath><clipPath id="663de93d3b"><path d="M 22.605469 7.261719 L 32.171875 7.261719 L 32.171875 30.5625 L 22.605469 30.5625 Z M 22.605469 7.261719 " clip-rule="nonzero"/></clipPath><clipPath id="340b228729"><path d="M 33.234375 1.4375 L 42.796875 1.4375 L 42.796875 30.5625 L 33.234375 30.5625 Z M 33.234375 1.4375 " clip-rule="nonzero"/></clipPath><clipPath id="967dc46156"><rect x="0" width="45" y="0" height="32"/></clipPath><clipPath id="c8025c35cf"><rect x="0" width="116" y="0" height="32"/></clipPath></defs><rect x="-15" width="180" fill="#ffffff" y="-15" height="179.999997" fill-opacity="1"/><rect x="-15" width="180" fill="#ffffff" y="-15" height="179.999997" fill-opacity="1"/><g transform="matrix(1, 0, 0, 1, 17, 59)"><g clip-path="url(#c8025c35cf)"><g fill="#000000" fill-opacity="1"><g transform="translate(49.868446, 21.585326)"><g><path d="M 5.109375 0.203125 C 4.203125 0.203125 3.328125 0.0820312 2.484375 -0.15625 C 1.640625 -0.40625 0.960938 -0.726562 0.453125 -1.125 L 1.359375 -3.109375 C 1.847656 -2.753906 2.425781 -2.46875 3.09375 -2.25 C 3.769531 -2.03125 4.445312 -1.921875 5.125 -1.921875 C 5.875 -1.921875 6.425781 -2.03125 6.78125 -2.25 C 7.144531 -2.476562 7.328125 -2.773438 7.328125 -3.140625 C 7.328125 -3.421875 7.21875 -3.648438 7 -3.828125 C 6.789062 -4.003906 6.519531 -4.144531 6.1875 -4.25 C 5.851562 -4.363281 5.40625 -4.484375 4.84375 -4.609375 C 3.976562 -4.816406 3.265625 -5.023438 2.703125 -5.234375 C 2.148438 -5.441406 1.675781 -5.773438 1.28125 -6.234375 C 0.882812 -6.691406 0.6875 -7.300781 0.6875 -8.0625 C 0.6875 -8.71875 0.863281 -9.316406 1.21875 -9.859375 C 1.582031 -10.398438 2.125 -10.828125 2.84375 -11.140625 C 3.570312 -11.453125 4.457031 -11.609375 5.5 -11.609375 C 6.226562 -11.609375 6.9375 -11.519531 7.625 -11.34375 C 8.320312 -11.175781 8.9375 -10.929688 9.46875 -10.609375 L 8.640625 -8.59375 C 7.585938 -9.195312 6.535156 -9.5 5.484375 -9.5 C 4.742188 -9.5 4.195312 -9.378906 3.84375 -9.140625 C 3.488281 -8.898438 3.3125 -8.582031 3.3125 -8.1875 C 3.3125 -7.800781 3.515625 -7.507812 3.921875 -7.3125 C 4.328125 -7.125 4.953125 -6.9375 5.796875 -6.75 C 6.660156 -6.539062 7.367188 -6.332031 7.921875 -6.125 C 8.484375 -5.925781 8.960938 -5.601562 9.359375 -5.15625 C 9.753906 -4.707031 9.953125 -4.101562 9.953125 -3.34375 C 9.953125 -2.6875 9.769531 -2.085938 9.40625 -1.546875 C 9.039062 -1.015625 8.492188 -0.585938 7.765625 -0.265625 C 7.035156 0.046875 6.148438 0.203125 5.109375 0.203125 Z M 5.109375 0.203125 "/></g></g></g><g fill="#000000" fill-opacity="1"><g transform="translate(59.942414, 21.585326)"><g><path d="M 9.765625 -4.359375 C 9.765625 -4.328125 9.75 -4.097656 9.71875 -3.671875 L 3.078125 -3.671875 C 3.203125 -3.128906 3.484375 -2.695312 3.921875 -2.375 C 4.367188 -2.0625 4.925781 -1.90625 5.59375 -1.90625 C 6.050781 -1.90625 6.457031 -1.972656 6.8125 -2.109375 C 7.164062 -2.242188 7.492188 -2.457031 7.796875 -2.75 L 9.15625 -1.28125 C 8.320312 -0.34375 7.113281 0.125 5.53125 0.125 C 4.539062 0.125 3.664062 -0.0664062 2.90625 -0.453125 C 2.144531 -0.835938 1.554688 -1.367188 1.140625 -2.046875 C 0.722656 -2.734375 0.515625 -3.515625 0.515625 -4.390625 C 0.515625 -5.242188 0.71875 -6.015625 1.125 -6.703125 C 1.539062 -7.398438 2.101562 -7.941406 2.8125 -8.328125 C 3.519531 -8.710938 4.316406 -8.90625 5.203125 -8.90625 C 6.066406 -8.90625 6.84375 -8.71875 7.53125 -8.34375 C 8.226562 -7.976562 8.773438 -7.445312 9.171875 -6.75 C 9.566406 -6.0625 9.765625 -5.265625 9.765625 -4.359375 Z M 5.21875 -6.984375 C 4.644531 -6.984375 4.160156 -6.816406 3.765625 -6.484375 C 3.378906 -6.160156 3.140625 -5.71875 3.046875 -5.15625 L 7.375 -5.15625 C 7.289062 -5.707031 7.050781 -6.148438 6.65625 -6.484375 C 6.257812 -6.816406 5.78125 -6.984375 5.21875 -6.984375 Z M 5.21875 -6.984375 "/></g></g></g><g fill="#000000" fill-opacity="1"><g transform="translate(69.902273, 21.585326)"><g><path d="M 3.609375 -7.625 C 3.910156 -8.039062 4.316406 -8.359375 4.828125 -8.578125 C 5.347656 -8.796875 5.945312 -8.90625 6.625 -8.90625 L 6.625 -6.5625 C 6.34375 -6.582031 6.148438 -6.59375 6.046875 -6.59375 C 5.316406 -6.59375 4.742188 -6.382812 4.328125 -5.96875 C 3.921875 -5.5625 3.71875 -4.953125 3.71875 -4.140625 L 3.71875 0 L 1.171875 0 L 1.171875 -8.78125 L 3.609375 -8.78125 Z M 3.609375 -7.625 "/></g></g></g><g fill="#000000" fill-opacity="1"><g transform="translate(76.846498, 21.585326)"><g><path d="M 9.890625 -8.78125 L 6.1875 0 L 3.5625 0 L -0.125 -8.78125 L 2.5 -8.78125 L 4.921875 -2.8125 L 7.4375 -8.78125 Z M 9.890625 -8.78125 "/></g></g></g><g fill="#000000" fill-opacity="1"><g transform="translate(86.26842, 21.585326)"><g><path d="M 3.609375 -7.625 C 3.910156 -8.039062 4.316406 -8.359375 4.828125 -8.578125 C 5.347656 -8.796875 5.945312 -8.90625 6.625 -8.90625 L 6.625 -6.5625 C 6.34375 -6.582031 6.148438 -6.59375 6.046875 -6.59375 C 5.316406 -6.59375 4.742188 -6.382812 4.328125 -5.96875 C 3.921875 -5.5625 3.71875 -4.953125 3.71875 -4.140625 L 3.71875 0 L 1.171875 0 L 1.171875 -8.78125 L 3.609375 -8.78125 Z M 3.609375 -7.625 "/></g></g></g><g fill="#000000" fill-opacity="1"><g transform="translate(92.902837, 21.585326)"><g><path d="M 1.171875 -8.78125 L 3.71875 -8.78125 L 3.71875 0 L 1.171875 0 Z M 2.453125 -10 C 1.984375 -10 1.601562 -10.132812 1.3125 -10.40625 C 1.019531 -10.675781 0.875 -11.015625 0.875 -11.421875 C 0.875 -11.816406 1.019531 -12.148438 1.3125 -12.421875 C 1.601562 -12.703125 1.984375 -12.84375 2.453125 -12.84375 C 2.921875 -12.84375 3.300781 -12.710938 3.59375 -12.453125 C 3.882812 -12.191406 4.03125 -11.863281 4.03125 -11.46875 C 4.03125 -11.039062 3.882812 -10.6875 3.59375 -10.40625 C 3.300781 -10.132812 2.921875 -10 2.453125 -10 Z M 2.453125 -10 "/></g></g></g><g fill="#000000" fill-opacity="1"><g transform="translate(97.483328, 21.585326)"><g><path d="M 4.125 0.125 C 3.394531 0.125 2.679688 0.0351562 1.984375 -0.140625 C 1.296875 -0.316406 0.742188 -0.539062 0.328125 -0.8125 L 1.171875 -2.640625 C 1.566406 -2.390625 2.039062 -2.1875 2.59375 -2.03125 C 3.144531 -1.875 3.6875 -1.796875 4.21875 -1.796875 C 5.300781 -1.796875 5.84375 -2.0625 5.84375 -2.59375 C 5.84375 -2.84375 5.691406 -3.019531 5.390625 -3.125 C 5.097656 -3.238281 4.648438 -3.332031 4.046875 -3.40625 C 3.328125 -3.519531 2.734375 -3.644531 2.265625 -3.78125 C 1.796875 -3.925781 1.390625 -4.175781 1.046875 -4.53125 C 0.703125 -4.894531 0.53125 -5.40625 0.53125 -6.0625 C 0.53125 -6.625 0.691406 -7.117188 1.015625 -7.546875 C 1.335938 -7.972656 1.804688 -8.304688 2.421875 -8.546875 C 3.035156 -8.785156 3.757812 -8.90625 4.59375 -8.90625 C 5.21875 -8.90625 5.835938 -8.835938 6.453125 -8.703125 C 7.066406 -8.566406 7.578125 -8.378906 7.984375 -8.140625 L 7.125 -6.328125 C 6.351562 -6.765625 5.507812 -6.984375 4.59375 -6.984375 C 4.050781 -6.984375 3.644531 -6.90625 3.375 -6.75 C 3.101562 -6.601562 2.96875 -6.410156 2.96875 -6.171875 C 2.96875 -5.898438 3.113281 -5.707031 3.40625 -5.59375 C 3.695312 -5.488281 4.164062 -5.382812 4.8125 -5.28125 C 5.53125 -5.164062 6.117188 -5.039062 6.578125 -4.90625 C 7.035156 -4.769531 7.429688 -4.519531 7.765625 -4.15625 C 8.097656 -3.800781 8.265625 -3.300781 8.265625 -2.65625 C 8.265625 -2.113281 8.101562 -1.628906 7.78125 -1.203125 C 7.457031 -0.785156 6.984375 -0.457031 6.359375 -0.21875 C 5.734375 0.0078125 4.988281 0.125 4.125 0.125 Z M 4.125 0.125 "/></g></g></g><g clip-path="url(#7505823e84)"><g fill="#000000" fill-opacity="1"><g transform="translate(105.813074, 21.585326)"><g><path d="M 9.765625 -4.359375 C 9.765625 -4.328125 9.75 -4.097656 9.71875 -3.671875 L 3.078125 -3.671875 C 3.203125 -3.128906 3.484375 -2.695312 3.921875 -2.375 C 4.367188 -2.0625 4.925781 -1.90625 5.59375 -1.90625 C 6.050781 -1.90625 6.457031 -1.972656 6.8125 -2.109375 C 7.164062 -2.242188 7.492188 -2.457031 7.796875 -2.75 L 9.15625 -1.28125 C 8.320312 -0.34375 7.113281 0.125 5.53125 0.125 C 4.539062 0.125 3.664062 -0.0664062 2.90625 -0.453125 C 2.144531 -0.835938 1.554688 -1.367188 1.140625 -2.046875 C 0.722656 -2.734375 0.515625 -3.515625 0.515625 -4.390625 C 0.515625 -5.242188 0.71875 -6.015625 1.125 -6.703125 C 1.539062 -7.398438 2.101562 -7.941406 2.8125 -8.328125 C 3.519531 -8.710938 4.316406 -8.90625 5.203125 -8.90625 C 6.066406 -8.90625 6.84375 -8.71875 7.53125 -8.34375 C 8.226562 -7.976562 8.773438 -7.445312 9.171875 -6.75 C 9.566406 -6.0625 9.765625 -5.265625 9.765625 -4.359375 Z M 5.21875 -6.984375 C 4.644531 -6.984375 4.160156 -6.816406 3.765625 -6.484375 C 3.378906 -6.160156 3.140625 -5.71875 3.046875 -5.15625 L 7.375 -5.15625 C 7.289062 -5.707031 7.050781 -6.148438 6.65625 -6.484375 C 6.257812 -6.816406 5.78125 -6.984375 5.21875 -6.984375 Z M 5.21875 -6.984375 "/></g></g></g></g><g clip-path="url(#bbcb71e35a)"><g transform="matrix(1, 0, 0, 1, -0.000000000000003553, -0.000000000000007105)"><g clip-path="url(#967dc46156)"><g clip-path="url(#ef420c83b0)"><path fill="#6ce5e8" d="M 2.121094 18.914062 L 10.152344 18.914062 C 10.363281 18.914062 10.546875 18.988281 10.695312 19.136719 C 10.84375 19.285156 10.917969 19.464844 10.917969 19.675781 L 10.917969 30.5625 C 10.917969 30.773438 10.84375 30.953125 10.695312 31.101562 C 10.546875 31.253906 10.363281 31.328125 10.152344 31.328125 L 2.121094 31.328125 C 1.910156 31.328125 1.730469 31.253906 1.578125 31.101562 C 1.429688 30.953125 1.355469 30.773438 1.355469 30.5625 L 1.355469 19.675781 C 1.355469 19.464844 1.429688 19.285156 1.578125 19.136719 C 1.730469 18.988281 1.910156 18.914062 2.121094 18.914062 Z M 2.121094 18.914062 " fill-opacity="1" fill-rule="nonzero"/></g><g clip-path="url(#a10a2e91e9)"><path fill="#41b8d5" d="M 12.746094 13.085938 L 20.777344 13.085938 C 20.992188 13.085938 21.171875 13.164062 21.320312 13.3125 C 21.46875 13.460938 21.542969 13.640625 21.542969 13.851562 L 21.542969 30.5625 C 21.542969 30.773438 21.46875 30.953125 21.320312 31.101562 C 21.171875 31.253906 20.992188 31.328125 20.777344 31.328125 L 12.746094 31.328125 C 12.535156 31.328125 12.355469 31.253906 12.207031 31.101562 C 12.054688 30.953125 11.980469 30.773438 11.980469 30.5625 L 11.980469 13.851562 C 11.980469 13.640625 12.054688 13.460938 12.207031 13.3125 C 12.355469 13.164062 12.535156 13.085938 12.746094 13.085938 Z M 12.746094 13.085938 " fill-opacity="1" fill-rule="nonzero"/></g><g clip-path="url(#663de93d3b)"><path fill="#2d8bba" d="M 23.371094 7.261719 L 31.40625 7.261719 C 31.617188 7.261719 31.796875 7.335938 31.945312 7.488281 C 32.09375 7.636719 32.171875 7.816406 32.171875 8.027344 L 32.171875 30.5625 C 32.171875 30.773438 32.09375 30.953125 31.945312 31.101562 C 31.796875 31.253906 31.617188 31.328125 31.40625 31.328125 L 23.371094 31.328125 C 23.160156 31.328125 22.980469 31.253906 22.832031 31.101562 C 22.679688 30.953125 22.605469 30.773438 22.605469 30.5625 L 22.605469 8.027344 C 22.605469 7.816406 22.679688 7.636719 22.832031 7.488281 C 22.980469 7.335938 23.160156 7.261719 23.371094 7.261719 Z M 23.371094 7.261719 " fill-opacity="1" fill-rule="nonzero"/></g><g clip-path="url(#340b228729)"><path fill="#2f5f98" d="M 33.996094 1.4375 L 42.03125 1.4375 C 42.242188 1.4375 42.421875 1.511719 42.570312 1.660156 C 42.722656 1.8125 42.796875 1.992188 42.796875 2.203125 L 42.796875 30.5625 C 42.796875 30.773438 42.722656 30.953125 42.570312 31.101562 C 42.421875 31.253906 42.242188 31.328125 42.03125 31.328125 L 33.996094 31.328125 C 33.785156 31.328125 33.605469 31.253906 33.457031 31.101562 C 33.308594 30.953125 33.234375 30.773438 33.234375 30.5625 L 33.234375 2.203125 C 33.234375 1.992188 33.308594 1.8125 33.457031 1.660156 C 33.605469 1.511719 33.785156 1.4375 33.996094 1.4375 Z M 33.996094 1.4375 " fill-opacity="1" fill-rule="nonzero"/></g></g></g></g></g></g></svg>